<svg width="32" height="26" viewBox="0 0 32 26" fill="none" xmlns="http://www.w3.org/2000/svg">
<path d="M6.5 24.3243C8.53 24.3243 10.52 23.7669 12.26 22.7078L17.6 19.4595H6.4V24.3243H6.5ZM17.6 6.48648L12.26 3.23817C10.52 2.17905 8.53 1.62161 6.5 1.62161H6.4V6.48648H17.6ZM4.8 6.48648V1.62161H4C2.675 1.62161 1.6 2.71114 1.6 4.05405V6.48648H2C0.895 6.48648 0 7.39357 0 8.51351V9.32432V16.6216V17.4324C0 18.5524 0.895 19.4595 2 19.4595H1.6V21.8919C1.6 23.2348 2.675 24.3243 4 24.3243H4.8V19.4595H5.2C6.51 19.4595 7.67 18.8209 8.4 17.8378H22.8C26.265 17.8378 29.55 16.6875 31.76 13.7027C32.08 13.272 32.08 12.674 31.76 12.2432C29.55 9.25844 26.265 8.1081 22.8 8.1081H8.4C7.67 7.12499 6.51 6.48648 5.2 6.48648H4.8ZM25.6 12.3446V13.6064C25.6 14.5997 24.805 15.4105 23.82 15.4105C23.695 15.4105 23.6 15.3091 23.6 15.1875V10.7635C23.6 10.6368 23.7 10.5405 23.82 10.5405C24.8 10.5405 25.6 11.3463 25.6 12.3446Z" fill="black"/>
</svg>
