<svg width="17" height="22" viewBox="0 0 17 22" fill="none" xmlns="http://www.w3.org/2000/svg">
<path d="M14.7751 6.42698C15.2959 5.91428 15.2959 5.08167 14.7751 4.56897C14.2543 4.05627 13.4084 4.05627 12.8876 4.56897L8.50011 8.89202L4.10845 4.57307C3.58761 4.06038 2.74178 4.06038 2.22095 4.57307C1.70011 5.08577 1.70011 5.91838 2.22095 6.43108L6.61261 10.75L2.22511 15.0731C1.70428 15.5858 1.70428 16.4184 2.22511 16.9311C2.74595 17.4438 3.59178 17.4438 4.11261 16.9311L8.50011 12.608L12.8918 16.927C13.4126 17.4397 14.2584 17.4397 14.7793 16.927C15.3001 16.4143 15.3001 15.5817 14.7793 15.069L10.3876 10.75L14.7751 6.42698Z" fill="black"/>
</svg>
